<?xml version="1.0" encoding="utf-8"?>
<!-- Generator: Adobe Illustrator 15.0.0, SVG Export Plug-In . SVG Version: 6.00 Build 0)  -->
<!DOCTYPE svg PUBLIC "-//W3C//DTD SVG 1.1//EN" "http://www.w3.org/Graphics/SVG/1.1/DTD/svg11.dtd">
<svg version="1.1" id="Layer_1" xmlns="http://www.w3.org/2000/svg" xmlns:xlink="http://www.w3.org/1999/xlink" x="0px" y="0px"
	 width="24px" height="24px" viewBox="0 0 24 24" enable-background="new 0 0 24 24" xml:space="preserve">
<g>
	<path fill="#FFFFFF" d="M12,20.984c-4.954,0-8.984-4.03-8.984-8.984c0-4.954,4.03-8.984,8.984-8.984
		c4.954,0,8.984,4.03,8.984,8.984C20.984,16.954,16.954,20.984,12,20.984z"/>
	<path fill="#B2B2B2" d="M12,4.016c4.402,0,7.984,3.582,7.984,7.984S16.402,19.984,12,19.984S4.016,16.402,4.016,12
		S7.598,4.016,12,4.016 M12,2.016c-5.514,0-9.984,4.47-9.984,9.984c0,5.514,4.47,9.984,9.984,9.984c5.514,0,9.984-4.471,9.984-9.984
		C21.984,6.486,17.514,2.016,12,2.016L12,2.016z"/>
</g>
<title>check_circle</title>
</svg>
